<mxfile host="app.diagrams.net" modified="2022-03-09T23:36:14.305Z" agent="5.0 (Macintosh; Intel Mac OS X 10_15_7) AppleWebKit/537.36 (KHTML, like Gecko) Chrome/96.0.4664.55 Safari/537.36" etag="teUL9ZpvVLnsDGpogpn4" version="17.1.0" type="github">
  <diagram id="tDUquiGnQi9XWiO2er99" name="Page-1">
    <mxGraphModel dx="946" dy="614" grid="1" gridSize="10" guides="1" tooltips="1" connect="1" arrows="1" fold="1" page="1" pageScale="1" pageWidth="827" pageHeight="1169" math="0" shadow="0">
      <root>
        <mxCell id="0" />
        <mxCell id="1" parent="0" />
        <mxCell id="JMjtgXrBpgk3lY0DDRk8-10" style="edgeStyle=orthogonalEdgeStyle;rounded=0;orthogonalLoop=1;jettySize=auto;html=1;exitX=0.5;exitY=1;exitDx=0;exitDy=0;exitPerimeter=0;fontSize=16;" edge="1" parent="1" source="JMjtgXrBpgk3lY0DDRk8-1">
          <mxGeometry relative="1" as="geometry">
            <mxPoint x="260" y="70" as="targetPoint" />
          </mxGeometry>
        </mxCell>
        <mxCell id="JMjtgXrBpgk3lY0DDRk8-1" value="&lt;b&gt;&lt;font style=&quot;font-size: 20px&quot;&gt;Inicio&lt;/font&gt;&lt;/b&gt;" style="strokeWidth=2;html=1;shape=mxgraph.flowchart.terminator;whiteSpace=wrap;" vertex="1" parent="1">
          <mxGeometry x="210" y="10" width="100" height="40" as="geometry" />
        </mxCell>
        <mxCell id="JMjtgXrBpgk3lY0DDRk8-11" style="edgeStyle=orthogonalEdgeStyle;rounded=0;orthogonalLoop=1;jettySize=auto;html=1;exitX=0.5;exitY=1;exitDx=0;exitDy=0;exitPerimeter=0;fontSize=16;" edge="1" parent="1" source="JMjtgXrBpgk3lY0DDRk8-3" target="JMjtgXrBpgk3lY0DDRk8-5">
          <mxGeometry relative="1" as="geometry" />
        </mxCell>
        <mxCell id="JMjtgXrBpgk3lY0DDRk8-3" value="&lt;font style=&quot;font-size: 10px&quot;&gt;&lt;b&gt;&quot;Digite o primeiro número&quot;&lt;/b&gt;&lt;/font&gt;" style="strokeWidth=2;html=1;shape=mxgraph.flowchart.display;whiteSpace=wrap;fontSize=20;" vertex="1" parent="1">
          <mxGeometry x="205" y="80" width="110" height="80" as="geometry" />
        </mxCell>
        <mxCell id="JMjtgXrBpgk3lY0DDRk8-4" value="&lt;b&gt;&lt;font style=&quot;font-size: 20px&quot;&gt;Fim&lt;/font&gt;&lt;/b&gt;" style="strokeWidth=2;html=1;shape=mxgraph.flowchart.terminator;whiteSpace=wrap;" vertex="1" parent="1">
          <mxGeometry x="210" y="800" width="100" height="40" as="geometry" />
        </mxCell>
        <mxCell id="JMjtgXrBpgk3lY0DDRk8-12" style="edgeStyle=orthogonalEdgeStyle;rounded=0;orthogonalLoop=1;jettySize=auto;html=1;exitX=0.5;exitY=1;exitDx=0;exitDy=0;entryX=0.5;entryY=0;entryDx=0;entryDy=0;entryPerimeter=0;fontSize=16;" edge="1" parent="1" source="JMjtgXrBpgk3lY0DDRk8-5" target="JMjtgXrBpgk3lY0DDRk8-6">
          <mxGeometry relative="1" as="geometry" />
        </mxCell>
        <mxCell id="JMjtgXrBpgk3lY0DDRk8-5" value="&lt;font style=&quot;font-size: 16px&quot;&gt;num1&lt;/font&gt;" style="html=1;strokeWidth=2;shape=manualInput;whiteSpace=wrap;rounded=1;size=26;arcSize=11;fontSize=10;" vertex="1" parent="1">
          <mxGeometry x="210" y="180" width="100" height="60" as="geometry" />
        </mxCell>
        <mxCell id="JMjtgXrBpgk3lY0DDRk8-13" style="edgeStyle=orthogonalEdgeStyle;rounded=0;orthogonalLoop=1;jettySize=auto;html=1;exitX=0.5;exitY=1;exitDx=0;exitDy=0;exitPerimeter=0;fontSize=16;" edge="1" parent="1" source="JMjtgXrBpgk3lY0DDRk8-6" target="JMjtgXrBpgk3lY0DDRk8-7">
          <mxGeometry relative="1" as="geometry" />
        </mxCell>
        <mxCell id="JMjtgXrBpgk3lY0DDRk8-6" value="&lt;font style=&quot;font-size: 10px&quot;&gt;&lt;b&gt;&quot;Digite o segundo número&quot;&lt;/b&gt;&lt;/font&gt;" style="strokeWidth=2;html=1;shape=mxgraph.flowchart.display;whiteSpace=wrap;fontSize=20;" vertex="1" parent="1">
          <mxGeometry x="205" y="270" width="110" height="80" as="geometry" />
        </mxCell>
        <mxCell id="JMjtgXrBpgk3lY0DDRk8-14" style="edgeStyle=orthogonalEdgeStyle;rounded=0;orthogonalLoop=1;jettySize=auto;html=1;exitX=0.5;exitY=1;exitDx=0;exitDy=0;fontSize=16;" edge="1" parent="1" source="JMjtgXrBpgk3lY0DDRk8-7">
          <mxGeometry relative="1" as="geometry">
            <mxPoint x="260" y="440" as="targetPoint" />
          </mxGeometry>
        </mxCell>
        <mxCell id="JMjtgXrBpgk3lY0DDRk8-7" value="&lt;font style=&quot;font-size: 16px&quot;&gt;num2&lt;/font&gt;" style="html=1;strokeWidth=2;shape=manualInput;whiteSpace=wrap;rounded=1;size=26;arcSize=11;fontSize=10;" vertex="1" parent="1">
          <mxGeometry x="210" y="360" width="100" height="60" as="geometry" />
        </mxCell>
        <mxCell id="JMjtgXrBpgk3lY0DDRk8-23" style="edgeStyle=orthogonalEdgeStyle;rounded=0;orthogonalLoop=1;jettySize=auto;html=1;exitX=0.5;exitY=1;exitDx=0;exitDy=0;exitPerimeter=0;fontSize=16;" edge="1" parent="1" source="JMjtgXrBpgk3lY0DDRk8-9">
          <mxGeometry relative="1" as="geometry">
            <mxPoint x="260" y="570" as="targetPoint" />
          </mxGeometry>
        </mxCell>
        <mxCell id="JMjtgXrBpgk3lY0DDRk8-25" style="edgeStyle=orthogonalEdgeStyle;rounded=0;orthogonalLoop=1;jettySize=auto;html=1;exitX=1;exitY=0.5;exitDx=0;exitDy=0;exitPerimeter=0;entryX=1;entryY=0.5;entryDx=0;entryDy=0;entryPerimeter=0;fontSize=16;" edge="1" parent="1" source="JMjtgXrBpgk3lY0DDRk8-9" target="JMjtgXrBpgk3lY0DDRk8-22">
          <mxGeometry relative="1" as="geometry">
            <Array as="points">
              <mxPoint x="390" y="490" />
              <mxPoint x="390" y="735" />
            </Array>
          </mxGeometry>
        </mxCell>
        <mxCell id="JMjtgXrBpgk3lY0DDRk8-9" value="num1 &amp;gt; num2" style="strokeWidth=2;html=1;shape=mxgraph.flowchart.decision;whiteSpace=wrap;fontSize=16;" vertex="1" parent="1">
          <mxGeometry x="190" y="450" width="140" height="80" as="geometry" />
        </mxCell>
        <mxCell id="JMjtgXrBpgk3lY0DDRk8-27" style="edgeStyle=orthogonalEdgeStyle;rounded=0;orthogonalLoop=1;jettySize=auto;html=1;exitX=0.5;exitY=1;exitDx=0;exitDy=0;exitPerimeter=0;fontSize=16;" edge="1" parent="1" source="JMjtgXrBpgk3lY0DDRk8-19">
          <mxGeometry relative="1" as="geometry">
            <mxPoint x="260" y="700" as="targetPoint" />
          </mxGeometry>
        </mxCell>
        <mxCell id="JMjtgXrBpgk3lY0DDRk8-19" value="&lt;font style=&quot;font-size: 10px&quot;&gt;&lt;b&gt;&quot;O primeiro número é maior&quot;&lt;/b&gt;&lt;/font&gt;" style="strokeWidth=2;html=1;shape=mxgraph.flowchart.display;whiteSpace=wrap;fontSize=20;" vertex="1" parent="1">
          <mxGeometry x="205" y="585" width="110" height="80" as="geometry" />
        </mxCell>
        <mxCell id="JMjtgXrBpgk3lY0DDRk8-21" value="&lt;b&gt;Verdade&lt;/b&gt;" style="text;html=1;strokeColor=none;fillColor=none;align=center;verticalAlign=middle;whiteSpace=wrap;rounded=0;fontSize=16;" vertex="1" parent="1">
          <mxGeometry x="270" y="530" width="60" height="30" as="geometry" />
        </mxCell>
        <mxCell id="JMjtgXrBpgk3lY0DDRk8-28" style="edgeStyle=orthogonalEdgeStyle;rounded=0;orthogonalLoop=1;jettySize=auto;html=1;exitX=0.5;exitY=1;exitDx=0;exitDy=0;exitPerimeter=0;fontSize=16;" edge="1" parent="1" source="JMjtgXrBpgk3lY0DDRk8-22">
          <mxGeometry relative="1" as="geometry">
            <mxPoint x="260" y="790" as="targetPoint" />
          </mxGeometry>
        </mxCell>
        <mxCell id="JMjtgXrBpgk3lY0DDRk8-22" value="" style="verticalLabelPosition=bottom;verticalAlign=top;html=1;shape=mxgraph.flowchart.on-page_reference;fontSize=16;" vertex="1" parent="1">
          <mxGeometry x="245" y="720" width="30" height="30" as="geometry" />
        </mxCell>
        <mxCell id="JMjtgXrBpgk3lY0DDRk8-24" value="&lt;b&gt;Falso&lt;/b&gt;" style="text;html=1;strokeColor=none;fillColor=none;align=center;verticalAlign=middle;whiteSpace=wrap;rounded=0;fontSize=16;" vertex="1" parent="1">
          <mxGeometry x="340" y="460" width="60" height="30" as="geometry" />
        </mxCell>
      </root>
    </mxGraphModel>
  </diagram>
</mxfile>
